<svg xmlns="http://www.w3.org/2000/svg" width="1200" height="630" viewBox="0 0 1200 630">
  <defs>
    <linearGradient id="bg" x1="0%" y1="0%" x2="100%" y2="100%">
      <stop offset="0%" style="stop-color:#1e3a5f"/>
      <stop offset="100%" style="stop-color:#2a4870"/>
    </linearGradient>
    <linearGradient id="coral" x1="0%" y1="0%" x2="100%" y2="0%">
      <stop offset="0%" style="stop-color:#e8734a"/>
      <stop offset="50%" style="stop-color:#f19472"/>
      <stop offset="100%" style="stop-color:#e8734a"/>
    </linearGradient>
    <linearGradient id="coralV" x1="0%" y1="0%" x2="0%" y2="100%">
      <stop offset="0%" style="stop-color:#f19472"/>
      <stop offset="100%" style="stop-color:#c25a34"/>
    </linearGradient>
  </defs>

  <rect width="1200" height="630" fill="url(#bg)"/>

  <rect x="72"   y="72"    width="2"    height="486" fill="url(#coralV)" opacity="0.7"/>
  <rect x="1126" y="72"    width="2"    height="486" fill="url(#coralV)" opacity="0.7"/>
  <rect x="72"   y="72"    width="1056" height="1.5" fill="url(#coral)"  opacity="0.55"/>
  <rect x="72"   y="556.5" width="1056" height="1.5" fill="url(#coral)"  opacity="0.55"/>

  <rect x="72"   y="72"   width="32" height="2"  fill="#e8734a"/>
  <rect x="72"   y="72"   width="2"  height="32" fill="#e8734a"/>
  <rect x="1096" y="72"   width="32" height="2"  fill="#e8734a"/>
  <rect x="1126" y="72"   width="2"  height="32" fill="#e8734a"/>
  <rect x="72"   y="556"  width="32" height="2"  fill="#e8734a"/>
  <rect x="72"   y="526"  width="2"  height="32" fill="#e8734a"/>
  <rect x="1096" y="556"  width="32" height="2"  fill="#e8734a"/>
  <rect x="1126" y="526"  width="2"  height="32" fill="#e8734a"/>

  <rect x="540" y="148" width="120" height="1" fill="url(#coral)" opacity="0.8"/>

  <text x="600" y="188" font-family="Georgia, serif" font-size="14" fill="#e8734a" text-anchor="middle" letter-spacing="8" opacity="0.95">REAL ESTATE · URASOE OKINAWA</text>

  <text x="600" y="316" font-family="'Libre Baskerville', Georgia, serif" font-size="96" fill="url(#coral)" text-anchor="middle" letter-spacing="10" font-weight="700">FUDOUSAN NO IRAI</text>

  <text x="600" y="378" font-family="'Hiragino Mincho ProN', 'Yu Mincho', serif" font-size="26" fill="#faf6ee" text-anchor="middle" letter-spacing="10" opacity="0.95">不 動 産 の 依 頼 所 　 浦 添 本 店</text>

  <rect x="420" y="410" width="360" height="1" fill="url(#coral)" opacity="0.55"/>

  <text x="600" y="448" font-family="Georgia, serif" font-size="16" fill="#e8734a" text-anchor="middle" letter-spacing="4" opacity="0.9">Coffee のように 気軽に、家のこと。</text>

  <text x="600" y="510" font-family="Georgia, serif" font-size="15" fill="#a8b8cc" text-anchor="middle" letter-spacing="3">fudousan-irai-urasoe.search-mania.net</text>

  <polygon points="600,130 606,136 600,142 594,136" fill="#e8734a" opacity="0.75"/>
  <polygon points="600,488 604,492 600,496 596,492" fill="#e8734a" opacity="0.55"/>
</svg>
